<svg width="941.9599853515624px" height="194.03999023437498px" xmlns="http://www.w3.org/2000/svg" viewBox="-220.9799926757812 -22.01999511718749 941.9599853515624 194.03999023437498" style="background: rgba(0, 0, 0, 0) none repeat scroll 0% 0%;" preserveAspectRatio="xMidYMid"><defs><filter id="editing-metal-beveled"><feGaussianBlur stdDeviation="4" in="SourceAlpha" result="blur"></feGaussianBlur><feSpecularLighting surfaceScale="5" specularConstant="0.8" specularExponent="7.5" lighting-color="#fff" in="blur" result="specular"><fePointLight x="-250" y="-50" z="300"></fePointLight></feSpecularLighting><feComposite operator="in" in="specular" in2="SourceAlpha" result="comp"></feComposite><feComposite in="SourceGraphic" in2="comp" operator="arithmetic" k1="0" k2="1" k3="1" k4="0"></feComposite></filter></defs><g filter="url(#editing-metal-beveled)"><g transform="translate(-88.16000175476074, 119.89499473571777)"><path d="M26.66-71.63L26.66 0L5.08 0L5.08-71.63L26.66-71.63ZM62.30-51.81L30.03-7.32L30.03-36.91L39.99-51.76L62.30-51.81ZM49.17-27.64L63.43 0L39.99 0L36.43-10.45L49.17-27.64ZM90.72-71.63L90.72 0L69.14 0L69.14-71.63L90.72-71.63ZM126.37-51.81L94.09-7.32L94.09-36.91L104.05-51.76L126.37-51.81ZM113.23-27.64L127.49 0L104.05 0L100.49-10.45L113.23-27.64ZM188.48 0L167.38 0L167.38-38.92L136.67-38.92L136.67-45.36L143.16-51.86L175.54-51.86L188.48-38.92L188.48 0ZM141.02-30.18L163.96-30.18L163.96-21.19L152.83-21.19L152.83-12.11L163.96-12.11L163.96-6.40L157.52 0L141.02 0L132.32-8.54L132.32-21.53L141.02-30.18ZM219.97 0L198.19 0L198.19-51.86L219.97-51.86L219.97 0ZM232.76 0L232.76-38.92L223.49-38.92L223.49-44.58L230.71-51.86L242.72-51.86L254.39-40.19L254.39 0L232.76 0ZM298.54 6.84L298.54-38.92L288.96-38.92L288.96-51.86L307.18-51.86L320.12-38.92L320.12 5.13L307.18 18.16L278.71 18.16L272.22 11.62L272.22 6.84L298.54 6.84ZM285.55-12.11L295.12-12.11L295.12-6.40L288.67 0L276.90 0L263.96-12.94L263.96-38.92L276.90-51.86L285.55-51.86L285.55-12.11ZM329.44-40.23L341.11-51.86L349.76-51.86L349.76-33.54L374.37-33.54L385.60-22.22L385.60-12.11L373.54 0L364.01 0L364.01-19.58L340.67-19.58L329.44-30.37L329.44-40.23ZM351.03-14.84L351.03-9.52L360.60-9.52L360.60 0L338.38-0.05L329.39-10.69L329.39-14.84L351.03-14.84ZM364.01-38.28L364.01-42.33L353.17-42.33L353.17-51.86L376.12-51.86L383.84-44.14L383.84-38.28L364.01-38.28ZM394.04 0L394.04-71.63L415.63-71.63L415.63 0L394.04 0ZM428.56 0L428.56-38.92L419.04-38.92L419.04-45.46L425.39-51.86L437.21-51.86L450.20-38.92L450.20 0L428.56 0ZM515.19 0L494.09 0L494.09-38.92L463.38-38.92L463.38-45.36L469.87-51.86L502.25-51.86L515.19-38.92L515.19 0ZM467.72-30.18L490.67-30.18L490.67-21.19L479.54-21.19L479.54-12.11L490.67-12.11L490.67-6.40L484.23 0L467.72 0L459.03-8.54L459.03-21.53L467.72-30.18ZM537.74 0L519.14-51.86L539.75-51.86L548.19-24.85L554.20-43.55L561.96-19.68L555.81 0.05L555.76 0L537.74 0ZM571.97 0L554.49-51.86L574.85-51.86L591.55 0L571.97 0ZM610.64-51.86L593.70-3.22L584.62-31.15L590.43-51.86L610.64-51.86ZM636.82 0L615.04 0L615.04-51.86L636.82-51.86L636.82 0ZM649.61 0L649.61-38.92L640.33-38.92L640.33-44.58L647.56-51.86L659.57-51.86L671.24-40.19L671.24 0L649.61 0Z" fill="#444"></path></g></g><style>text {
  font-size: 64px;
  font-family: Arial Black;
  dominant-baseline: central;
  text-anchor: middle;
}</style></svg>